<svg xmlns="http://www.w3.org/2000/svg" viewBox="0 0 203.43 32.71"><defs><style>.cls-1{fill:#e10006;}.cls-2{fill:gray;}</style></defs><title>Asset 3</title><g id="Layer_2" data-name="Layer 2"><g id="Layer_1-2" data-name="Layer 1"><path class="cls-1" d="M.2,4.39Q.13,2.39,0,.8H4.32q.13,1.26.2,2.79t.07,2.53h.13a10.78,10.78,0,0,1,4-4.42,10.89,10.89,0,0,1,6-1.7q.86,0,1.56.07a8.56,8.56,0,0,1,1.43.27l-.6,4.32a8.67,8.67,0,0,0-1.33-.27,13.23,13.23,0,0,0-1.86-.13,9.23,9.23,0,0,0-3.46.66A7.41,7.41,0,0,0,7.55,7a11,11,0,0,0-2,3.65A16.48,16.48,0,0,0,4.79,16V31.91H.27V7.64Q.27,6.38.2,4.39Z"/><path class="cls-1" d="M51.32,15.42v1a10.36,10.36,0,0,1-.07,1.13H25.46a12.12,12.12,0,0,0,.93,4.39,11,11,0,0,0,2.39,3.59A11.51,11.51,0,0,0,32.37,28a11,11,0,0,0,4.45.9,11.09,11.09,0,0,0,6.08-1.63,12.18,12.18,0,0,0,3.89-3.76l3.39,2.66A16.86,16.86,0,0,1,44,31.18a17.21,17.21,0,0,1-7.21,1.53,16.55,16.55,0,0,1-6.41-1.23,15,15,0,0,1-5.09-3.42A16.21,16.21,0,0,1,22,22.87a17,17,0,0,1-1.23-6.51,17.39,17.39,0,0,1,1.2-6.51,15.77,15.77,0,0,1,3.32-5.19,15.29,15.29,0,0,1,5-3.42A15.47,15.47,0,0,1,36.43,0a15.87,15.87,0,0,1,6.45,1.23,13.3,13.3,0,0,1,4.65,3.32,14.3,14.3,0,0,1,2.83,4.89A18.22,18.22,0,0,1,51.32,15.42ZM46.73,14a11.22,11.22,0,0,0-2.83-7.28q-2.63-2.89-7.48-2.89a10.47,10.47,0,0,0-4.19.83,11.08,11.08,0,0,0-3.39,2.26,11.24,11.24,0,0,0-2.33,3.26,10.5,10.5,0,0,0-1,3.82Z"/><path class="cls-2" d="M56.9,15.66a4.32,4.32,0,0,1,.36-1.75,4.57,4.57,0,0,1,2.39-2.39,4.5,4.5,0,0,1,3.51,0,4.57,4.57,0,0,1,2.39,2.39,4.5,4.5,0,0,1,0,3.51,4.57,4.57,0,0,1-2.39,2.39,4.5,4.5,0,0,1-3.51,0,4.57,4.57,0,0,1-2.39-2.39A4.32,4.32,0,0,1,56.9,15.66Z"/><path class="cls-2" d="M90.28,8.18a8,8,0,0,0-3-3.16,8.74,8.74,0,0,0-4.62-1.23,11,11,0,0,0-2.39.27,6.52,6.52,0,0,0-2.13.86,4.69,4.69,0,0,0-1.5,1.53,4.14,4.14,0,0,0-.56,2.19A3.76,3.76,0,0,0,77.85,12a17.23,17.23,0,0,0,5.65,2q5.52,1.13,8.14,3.29a7.14,7.14,0,0,1,2.63,5.82,8.6,8.6,0,0,1-3.72,7.48,10.87,10.87,0,0,1-3.76,1.66,18.18,18.18,0,0,1-4.22.5,16.84,16.84,0,0,1-6.85-1.46,12.67,12.67,0,0,1-5.45-4.59L73.86,24a10.16,10.16,0,0,0,8.64,4.85,14.19,14.19,0,0,0,2.79-.27,6.39,6.39,0,0,0,2.33-.93,4.77,4.77,0,0,0,2.19-4.25,4,4,0,0,0-2.36-3.69,30.9,30.9,0,0,0-6.81-2.29q-1.4-.33-3-.83a10.13,10.13,0,0,1-2.89-1.46A7.93,7.93,0,0,1,72.6,12.7,7.08,7.08,0,0,1,71.74,9,8.38,8.38,0,0,1,72.67,5a8.16,8.16,0,0,1,2.49-2.79A11.13,11.13,0,0,1,78.72.53,15.94,15.94,0,0,1,82.84,0a14.49,14.49,0,0,1,6.32,1.46,10.19,10.19,0,0,1,4.59,4.12Z"/><path class="cls-2" d="M125.65,7.91a8.6,8.6,0,0,0-3.29-3,9.75,9.75,0,0,0-4.69-1.16,12.12,12.12,0,0,0-4.92,1A11.12,11.12,0,0,0,109,7.41a11.67,11.67,0,0,0-2.39,4,14.41,14.41,0,0,0-.83,5,14.13,14.13,0,0,0,.83,4.92,12,12,0,0,0,2.36,4,10.78,10.78,0,0,0,3.72,2.66,12.1,12.1,0,0,0,4.92,1A9.92,9.92,0,0,0,126,24.8l3.39,2.53a14.81,14.81,0,0,1-4.89,3.92,15.25,15.25,0,0,1-6.95,1.46,18.21,18.21,0,0,1-6.85-1.23,15.15,15.15,0,0,1-5.22-3.42,15.51,15.51,0,0,1-3.36-5.19,17.38,17.38,0,0,1-1.2-6.51,17.39,17.39,0,0,1,1.2-6.51,15.51,15.51,0,0,1,3.36-5.19,15.16,15.16,0,0,1,5.22-3.42A18.21,18.21,0,0,1,117.6,0,16.24,16.24,0,0,1,124,1.36a12.44,12.44,0,0,1,5.22,4Z"/><path class="cls-2" d="M159.09,31.91q-.13-1.26-.2-2.79t-.07-2.53h-.13A10.24,10.24,0,0,1,154.37,31a12.62,12.62,0,0,1-6.32,1.69q-5.92,0-8.87-3.52a14,14,0,0,1-3-9.31V.8h4.52V18a22.79,22.79,0,0,0,.4,4.45,9.32,9.32,0,0,0,1.36,3.42,6.5,6.5,0,0,0,2.59,2.23,9.27,9.27,0,0,0,4.09.8,8.71,8.71,0,0,0,3.49-.73,8.57,8.57,0,0,0,3-2.23,11.15,11.15,0,0,0,2.13-3.79,16.52,16.52,0,0,0,.8-5.42V.8h4.52V25.06q0,1.26.07,3.26t.2,3.59Z"/><path class="cls-2" d="M203.43,15.42v1a10.36,10.36,0,0,1-.07,1.13H177.57a12.12,12.12,0,0,0,.93,4.39,11,11,0,0,0,2.39,3.59A11.51,11.51,0,0,0,184.48,28,11.89,11.89,0,0,0,195,27.22a12.18,12.18,0,0,0,3.89-3.76l3.39,2.66a16.86,16.86,0,0,1-6.15,5.05,17.21,17.21,0,0,1-7.21,1.53,16.55,16.55,0,0,1-6.41-1.23,15,15,0,0,1-5.09-3.42,16.21,16.21,0,0,1-3.36-5.19,17,17,0,0,1-1.23-6.51A17.39,17.39,0,0,1,174,9.84a15.77,15.77,0,0,1,3.32-5.19,15.29,15.29,0,0,1,5-3.42A15.47,15.47,0,0,1,188.53,0,15.87,15.87,0,0,1,195,1.23a13.3,13.3,0,0,1,4.65,3.32,14.3,14.3,0,0,1,2.83,4.89A18.22,18.22,0,0,1,203.43,15.42ZM198.84,14A11.22,11.22,0,0,0,196,6.68q-2.63-2.89-7.48-2.89a10.47,10.47,0,0,0-4.19.83A11.08,11.08,0,0,0,181,6.88a11.24,11.24,0,0,0-2.33,3.26,10.5,10.5,0,0,0-1,3.82Z"/></g></g></svg>