<svg xmlns="http://www.w3.org/2000/svg" viewBox="0 0 139.51 139.51"><defs><style>.cls-1{fill:#e10006;stroke:#e10006;stroke-miterlimit:10;}</style></defs><title>Asset 6</title><g id="Layer_2" data-name="Layer 2"><g id="Layer_1-2" data-name="Layer 1"><path class="cls-1" d="M69.75,33.11c-17.87,0-34.69-1.39-47.38-3.93C7.45,26.2.5,22.27.5,16.8s7-9.4,21.87-12.38C35.06,1.89,51.89.5,69.75.5s34.69,1.39,47.38,3.93C132.06,7.4,139,11.34,139,16.8s-6.95,9.4-21.87,12.38C104.45,31.71,87.62,33.11,69.75,33.11Zm-63-16.3c.38.58,3.1,3.73,18.32,6.58,12.12,2.27,28,3.52,44.69,3.52s32.56-1.25,44.69-3.52c15.21-2.85,17.94-6,18.32-6.58-.38-.57-3.1-3.73-18.32-6.58C102.32,8,86.45,6.71,69.75,6.71S37.19,8,25.07,10.23C9.85,13.08,7.13,16.23,6.75,16.8Z"/><path class="cls-1" d="M69.75,47.08c-23.35,0-44.73-2.39-57.19-6.4a3.1,3.1,0,0,1,1.9-5.91c11.7,3.76,32.89,6.1,55.29,6.1,23.22,0,44.79-2.46,56.28-6.43a3.1,3.1,0,1,1,2,5.87C115.78,44.55,94,47.08,69.75,47.08Z"/><path class="cls-1" d="M69.75,60.43c-20.36,0-39.42-1.83-52.29-5a3.1,3.1,0,1,1,1.49-6c12.4,3.07,30.92,4.83,50.8,4.83a268.71,268.71,0,0,0,41.13-2.9,3.1,3.1,0,1,1,1,6.13A270.8,270.8,0,0,1,69.75,60.43Z"/><path class="cls-1" d="M69.75,73.78c-22,0-42.71-2.18-55.34-5.83a3.1,3.1,0,0,1,1.72-6c12.1,3.5,32.15,5.59,53.62,5.59,9,0,17.64-.35,25.8-1.05a3.1,3.1,0,1,1,.53,6.19C87.75,73.42,78.89,73.78,69.75,73.78Z"/><path class="cls-1" d="M69.75,87.13c-20.36,0-39.42-1.83-52.29-5a3.1,3.1,0,1,1,1.49-6C31.36,79.15,49.88,81,69.75,81l8.79,0h.08a3,3,0,0,1,3.1,2.93,3.06,3.06,0,0,1-3,3.14C75.77,87.13,72.75,87.13,69.75,87.13Z"/><path class="cls-1" d="M69.75,100.47c-3.87,0-7.75-.07-11.52-.2A239.78,239.78,0,0,1,24.63,97a3.1,3.1,0,1,1,1.11-6.11,233.61,233.61,0,0,0,32.71,3.2c3.7.13,7.51.19,11.31.19a3.1,3.1,0,1,1,0,6.21Z"/><path class="cls-1" d="M69.75,113.82c-4,0-8-.07-11.94-.21-7-.25-13.79-.73-20.08-1.41a3.1,3.1,0,0,1,.67-6.17c6.14.67,12.74,1.13,19.63,1.38,3.84.14,7.78.21,11.71.21a3.1,3.1,0,1,1,0,6.21Z"/><path class="cls-1" d="M69.75,127.17c-4.84,0-9.66-.1-14.34-.31a3.1,3.1,0,1,1,.27-6.2c4.59.2,9.32.3,14.07.3,1.94,0,2.61,0,3.93-.05l1.46,0a3.1,3.1,0,1,1,.14,6.21l-1.45,0C72.47,127.16,71.78,127.17,69.75,127.17Z"/><path class="cls-1" d="M70.91,139c-.64,0-1.32,0-2,0a3.1,3.1,0,1,1,.32-6.2c1.54.08,3.66,0,3.68,0a3.1,3.1,0,1,1,.24,6.2C73.14,139,72.12,139,70.91,139Z"/></g></g></svg>