<svg xmlns="http://www.w3.org/2000/svg" viewBox="0 0 141.35 138.11"><defs><style>.cls-1{fill:#e10006;stroke:#e10006;stroke-miterlimit:10;stroke-width:2px;}</style></defs><title>Asset 8</title><g id="Layer_2" data-name="Layer 2"><g id="Layer_1-2" data-name="Layer 1"><path class="cls-1" d="M59.16,90.5c3.53,3.7,7.79,6,11.82,6.44s8.47-1,13.28-6.34c1.49-1.66,3.12-3.59,5.87-4.51s6-.35,9.56,1.54c6.7,5.09,13.6,10.24,20.19,15.47a10.59,10.59,0,0,1,2.94,10.53,19.83,19.83,0,0,1-5.19,7.77c-11.19,11.66-24.44,17.29-37.45,15.32-12.57-2.18-24.73-11-38.2-24.45l-16-16C12.46,82.75,3.66,70.59,1.48,58-1.11,42.48,7.15,29.83,16.8,20.57a19.84,19.84,0,0,1,7.77-5.19A10.59,10.59,0,0,1,35.1,18.32c5.23,6.59,10.38,13.5,15.47,20.19C52.46,42,53,45.32,52.11,48.07s-2.85,4.38-4.51,5.87c-5.37,4.81-6.73,9.16-6.34,13.28S44,75.51,47.7,79m-4.58,4.58c-4.33-4.21-7.75-9.61-8.34-15.79s2-12.9,8.49-18.73c1.58-1.42,2.45-2.4,2.69-3.11s.3-1.73-1-4.26L30.52,22.9c-1.86-1.86-2.6-1.8-4-1.36a15.6,15.6,0,0,0-5.16,3.65C9.75,36.79,6.11,46.62,7.89,56.91s9.55,21.65,22.63,34.73l16,16C59.64,120.77,71,128.53,81.29,130.31s20.12-1.86,31.72-13.46a15.6,15.6,0,0,0,3.65-5.16c.44-1.41.49-2.15-1.36-4L96.47,93.29c-2.53-1.34-3.56-1.27-4.26-1s-1.7,1.1-3.11,2.69c-5.82,6.5-12.53,9.08-18.73,8.49s-11.58-4-15.79-8.34"/><path class="cls-1" d="M62.39,4.42a3.37,3.37,0,0,0,3.42,3.06,68,68,0,0,1,68.05,68.05,3.24,3.24,0,1,0,6.48,0A74.58,74.58,0,0,0,65.81,1,3.49,3.49,0,0,0,62.39,4.42Zm0,19.44a3.37,3.37,0,0,0,3.42,3.06,48.56,48.56,0,0,1,48.61,48.61,3.24,3.24,0,1,0,6.48,0A55.14,55.14,0,0,0,65.81,20.44a3.53,3.53,0,0,0-3.42,3.42Z"/></g></g></svg>