<svg xmlns="http://www.w3.org/2000/svg" viewBox="0 0 25 25"><defs><style>.cls-1{fill:gray;}</style></defs><title>Asset 2</title><g id="Layer_2" data-name="Layer 2"><g id="Layer_1-2" data-name="Layer 1"><path class="cls-1" d="M9.61,20.08a.81.81,0,0,1,.26-.61.85.85,0,0,1,.62-.25H24.14a.85.85,0,0,1,.86.86v4a.85.85,0,0,1-.25.63.88.88,0,0,1-.61.26H10.5a.9.9,0,0,1-.62-.26.85.85,0,0,1-.25-.62v-4Zm-4.08-.61a.83.83,0,0,1,.25.61v4a.85.85,0,0,1-.25.63.81.81,0,0,1-.61.26h-4a.82.82,0,0,1-.62-.26A.82.82,0,0,1,0,24.11v-4a.81.81,0,0,1,.26-.61.85.85,0,0,1,.63-.25h4A.83.83,0,0,1,5.53,19.47ZM.26,5.51A.82.82,0,0,1,0,4.89v-4A.81.81,0,0,1,.26.25.85.85,0,0,1,.89,0h4a.83.83,0,0,1,.61.25.83.83,0,0,1,.25.61v4a.85.85,0,0,1-.25.63.83.83,0,0,1-.61.25h-4A.85.85,0,0,1,.26,5.51Zm0,4.33A.85.85,0,0,1,.89,9.6h4a.85.85,0,0,1,.86.86v4a.83.83,0,0,1-.25.61.79.79,0,0,1-.61.28h-4a.81.81,0,0,1-.62-.28A.81.81,0,0,1,0,14.49v-4A.81.81,0,0,1,.26,9.85ZM24.14,9.6a.85.85,0,0,1,.86.86v4a.83.83,0,0,1-.25.61.79.79,0,0,1-.61.28H10.5a.81.81,0,0,1-.63-.28.83.83,0,0,1-.25-.61v-4a.81.81,0,0,1,.26-.61.85.85,0,0,1,.63-.25Zm.61-4.08a.83.83,0,0,1-.61.25H10.5a.85.85,0,0,1-.88-.87v-4A.81.81,0,0,1,9.88.25.85.85,0,0,1,10.5,0H24.14a.83.83,0,0,1,.61.25A.83.83,0,0,1,25,.86v4A.85.85,0,0,1,24.75,5.51Z"/></g></g></svg>