<svg xmlns="http://www.w3.org/2000/svg" viewBox="0 0 40 40"><defs><style>.cls-1{fill:gray;}</style></defs><title>Asset 1</title><g id="Layer_2" data-name="Layer 2"><g id="Layer_1-2" data-name="Layer 1"><path class="cls-1" d="M17.22,0,15.82,4.86a15.63,15.63,0,0,0-3.58,1.48L7.84,3.89,3.89,7.84l2.44,4.4a15.62,15.62,0,0,0-1.48,3.58L0,17.22v5.57l4.86,1.39a15.63,15.63,0,0,0,1.48,3.58l-2.44,4.4,3.95,3.95,4.4-2.44a15.62,15.62,0,0,0,3.58,1.48L17.22,40h5.57l1.39-4.86a15.62,15.62,0,0,0,3.58-1.48l4.4,2.44,3.95-3.95-2.44-4.4a15.63,15.63,0,0,0,1.48-3.58L40,22.78V17.22l-4.86-1.39a15.62,15.62,0,0,0-1.48-3.58l2.44-4.4L32.16,3.89l-4.4,2.44a15.63,15.63,0,0,0-3.58-1.48L22.78,0ZM20,10.91A9.09,9.09,0,1,1,10.91,20,9.13,9.13,0,0,1,20,10.91Zm0,5.45A3.64,3.64,0,1,0,23.64,20,3.6,3.6,0,0,0,20,16.36Z"/></g></g></svg>