<svg xmlns="http://www.w3.org/2000/svg" viewBox="0 0 144.52 131.77"><defs><style>.cls-1{fill:#e10006;}</style></defs><title>Asset 7</title><g id="Layer_2" data-name="Layer 2"><g id="Layer_1-2" data-name="Layer 1"><path class="cls-1" d="M66,20.4H37.07v28.9H66Zm-8.5,20.4H45.57V28.9h11.9Z"/><path class="cls-1" d="M106.78,20.4H77.87v28.9h28.9Zm-8.5,20.4H86.37V28.9h11.9Z"/><path class="cls-1" d="M66,59.51H37.07v28.9H66Zm-8.5,20.4H45.57V68h11.9Z"/><path class="cls-1" d="M106.78,59.51H77.87v28.9h28.9Zm-8.5,20.4H86.37V68h11.9Z"/><path class="cls-1" d="M140.27,123.27H125V0H19.55V123.27H4.25a4.25,4.25,0,0,0,0,8.5h136a4.25,4.25,0,1,0,0-8.5ZM28.05,8.5h88.41V123.27H87.56V98.61H55.26v24.65H28.05Zm51,114.77H63.76V107.12h15.3Z"/></g></g></svg>