<svg xmlns="http://www.w3.org/2000/svg" viewBox="0 0 125.09 138.42"><defs><style>.cls-1{fill:#e10006;}</style></defs><title>Asset 5</title><g id="Layer_2" data-name="Layer 2"><g id="Layer_1-2" data-name="Layer 1"><path class="cls-1" d="M26.51,123A94.87,94.87,0,0,0,44.79,129a34.39,34.39,0,0,1,14.43,8,4.6,4.6,0,0,0,3.23,1.34h0a4.58,4.58,0,0,0,3.34-1.22,34.43,34.43,0,0,1,14.41-8.08,94.1,94.1,0,0,0,18.36-6c11.39-5.1,19.48-11.57,24.06-19.22,6.62-11.08-1.32-34.65-10-57.84a122.64,122.64,0,0,1-4.46-13.08v-.1c0-2.19,4.22-4.34,6.27-5a4.62,4.62,0,0,0,2-7.62L100.14,3.05a4.66,4.66,0,0,0-6-.67A29.74,29.74,0,0,1,77.9,6.6,15.37,15.37,0,0,1,66.15,1.85,5,5,0,0,0,65.34,1a4.8,4.8,0,0,0-6.74.79A15.56,15.56,0,0,1,46.68,6.48a32.56,32.56,0,0,1-16.16-4.2A4.66,4.66,0,0,0,28,1.52,4.6,4.6,0,0,0,24.6,3L8.35,20.07A4.62,4.62,0,0,0,10.3,27.7c1.85.58,6.28,2.84,6.28,5a115.09,115.09,0,0,1-4.11,13.24c-9,24.27-16.52,47-10,57.84C7,111.4,15.12,117.86,26.51,123ZM21.08,49A64.42,64.42,0,0,0,26,32.75a13,13,0,0,0-5.85-10.51L19.78,22l9-10,.25.11a41.9,41.9,0,0,0,17.88,3.76A26.07,26.07,0,0,0,62.06,11l.22-.15.22.15a26.07,26.07,0,0,0,15.12,4.86A42.39,42.39,0,0,0,95.5,12.08l.25-.11L105,22.11l-.37.24A13,13,0,0,0,98.8,32.94a64.34,64.34,0,0,0,5,16.25L105,52.41c5.25,14.68,14,39.24,9.6,46.63-7.25,12-26.94,19-36.33,21a40.75,40.75,0,0,0-15.54,7.57l-.23.18-.23-.18A40.75,40.75,0,0,0,46.61,120c-10.1-2.15-29.13-9-36.32-21C6.89,93.49,10.52,76.66,21.08,49Z"/><path class="cls-1" d="M89.39,55.78a4.59,4.59,0,0,0-3-1.79L72.61,52l-6.1-12.2a4.86,4.86,0,0,0-8.31,0L52.12,52,38.39,54a4.64,4.64,0,0,0-2.69,1.37,4.62,4.62,0,0,0,.13,6.53l9.95,9.7L43.46,85.26a4.62,4.62,0,0,0,3.34,5,4.57,4.57,0,0,0,3.51-.42l12.21-6.47,12.21,6.47a4.65,4.65,0,0,0,2.17.56h.37v.41a4.67,4.67,0,0,0,.62-.09,4.62,4.62,0,0,0,3.57-5.46L79,71.59l9.95-9.7a4.64,4.64,0,0,0,1.37-2.69A4.59,4.59,0,0,0,89.39,55.78ZM71,66.46a4.61,4.61,0,0,0-1.34,4.12l1.15,6.77L64.63,74.1a4,4,0,0,0-4.1,0l-6.15,3.24,1.15-6.76a4.61,4.61,0,0,0-1.33-4.12l-5-4.86,6.76-1A4.61,4.61,0,0,0,59.47,58l3.1-6.21,3.1,6.2a4.62,4.62,0,0,0,3.51,2.56l6.77,1Z"/></g></g></svg>