<svg xmlns="http://www.w3.org/2000/svg" viewBox="0 0 558 89.72"><defs><style>.cls-1{fill:#fff;}</style></defs><title>Asset 14</title><g id="Layer_2" data-name="Layer 2"><g id="Layer_1-2" data-name="Layer 1"><path class="cls-1" d="M.55,12Q.36,6.56,0,2.19H11.85q.36,3.47.55,7.66t.18,6.93h.36A29.56,29.56,0,0,1,23.89,4.65,29.87,29.87,0,0,1,40.3,0q2.37,0,4.29.18A23.47,23.47,0,0,1,48.5.91L46.86,12.76A23.79,23.79,0,0,0,43.22,12a36.29,36.29,0,0,0-5.11-.36,25.32,25.32,0,0,0-9.48,1.82,20.33,20.33,0,0,0-7.93,5.73,30.08,30.08,0,0,0-5.47,10,45.2,45.2,0,0,0-2.1,14.65V87.53H.73V21Q.73,17.51.55,12Z"/><path class="cls-1" d="M140.77,42.31V45a28.42,28.42,0,0,1-.18,3.1H69.84a33.24,33.24,0,0,0,2.55,12A30.31,30.31,0,0,0,79,70a31.58,31.58,0,0,0,9.85,6.66A30.26,30.26,0,0,0,101,79.14a30.41,30.41,0,0,0,16.68-4.47,33.41,33.41,0,0,0,10.67-10.3l9.3,7.29Q130,81.33,120.81,85.52A47.2,47.2,0,0,1,101,89.72a45.4,45.4,0,0,1-17.6-3.37,41.19,41.19,0,0,1-14-9.39,44.46,44.46,0,0,1-9.21-14.22,46.52,46.52,0,0,1-3.37-17.87A47.69,47.69,0,0,1,60.17,27a43.26,43.26,0,0,1,9.12-14.22A42,42,0,0,1,83,3.37,42.44,42.44,0,0,1,99.93,0a43.53,43.53,0,0,1,17.69,3.37,36.49,36.49,0,0,1,12.76,9.12,39.22,39.22,0,0,1,7.75,13.4A50,50,0,0,1,140.77,42.31Zm-12.58-4q-.55-12-7.75-20T99.93,10.39a28.73,28.73,0,0,0-11.49,2.28,30.4,30.4,0,0,0-9.3,6.2,30.82,30.82,0,0,0-6.38,8.94A28.8,28.8,0,0,0,70,38.29Z"/><path class="cls-1" d="M156.07,42.94a11.86,11.86,0,0,1,1-4.81,12.54,12.54,0,0,1,6.55-6.55,12.34,12.34,0,0,1,9.62,0,12.54,12.54,0,0,1,6.55,6.55,12.34,12.34,0,0,1,0,9.62,12.54,12.54,0,0,1-6.55,6.55,12.34,12.34,0,0,1-9.62,0A12.54,12.54,0,0,1,157,47.75,11.85,11.85,0,0,1,156.07,42.94Z"/><path class="cls-1" d="M247.65,22.43a21.8,21.8,0,0,0-8.3-8.66,24,24,0,0,0-12.67-3.37,30.27,30.27,0,0,0-6.57.73,17.88,17.88,0,0,0-5.84,2.37,12.87,12.87,0,0,0-4.1,4.19,11.37,11.37,0,0,0-1.55,6,10.31,10.31,0,0,0,4.92,9.21q4.92,3.19,15.5,5.38,15.13,3.1,22.34,9t7.2,16a23.59,23.59,0,0,1-10.21,20.51,29.81,29.81,0,0,1-10.3,4.56,49.85,49.85,0,0,1-11.58,1.37,46.2,46.2,0,0,1-18.78-4,34.74,34.74,0,0,1-15-12.58l9.85-7.29a27.86,27.86,0,0,0,23.7,13.31,38.94,38.94,0,0,0,7.66-.73,17.53,17.53,0,0,0,6.38-2.55,13.09,13.09,0,0,0,6-11.67q0-6.75-6.47-10.12t-18.69-6.29q-3.83-.91-8.11-2.28a27.8,27.8,0,0,1-7.93-4,21.75,21.75,0,0,1-6-6.66,19.43,19.43,0,0,1-2.37-10,23,23,0,0,1,2.55-11.21,22.38,22.38,0,0,1,6.84-7.66,30.52,30.52,0,0,1,9.76-4.47A43.73,43.73,0,0,1,227.22,0a39.75,39.75,0,0,1,17.32,4,27.94,27.94,0,0,1,12.58,11.31Z"/><path class="cls-1" d="M344.65,21.7a23.58,23.58,0,0,0-9-8.12,26.73,26.73,0,0,0-12.86-3.19A33.24,33.24,0,0,0,309.28,13,30.51,30.51,0,0,0,299,20.33a32,32,0,0,0-6.56,10.94,39.54,39.54,0,0,0-2.28,13.58,38.76,38.76,0,0,0,2.28,13.49,33,33,0,0,0,6.47,10.85A29.56,29.56,0,0,0,309.1,76.5a33.18,33.18,0,0,0,13.49,2.64A27.2,27.2,0,0,0,345.75,68l9.3,6.93a40.62,40.62,0,0,1-13.4,10.76q-7.93,4-19.06,4a50,50,0,0,1-18.78-3.37A41.54,41.54,0,0,1,289.49,77a42.55,42.55,0,0,1-9.21-14.22A47.68,47.68,0,0,1,277,44.86,47.69,47.69,0,0,1,280.28,27a42.55,42.55,0,0,1,9.21-14.22,41.59,41.59,0,0,1,14.31-9.39A49.94,49.94,0,0,1,322.59,0,44.54,44.54,0,0,1,340,3.74a34.12,34.12,0,0,1,14.31,11Z"/><path class="cls-1" d="M436.37,87.53q-.37-3.46-.55-7.66t-.18-6.93h-.36a28.08,28.08,0,0,1-11.85,12.13,34.62,34.62,0,0,1-17.32,4.65q-16.23,0-24.34-9.66t-8.11-25.53V2.19H386V49.42a62.51,62.51,0,0,0,1.09,12.22A25.56,25.56,0,0,0,390.88,71,17.83,17.83,0,0,0,398,77.13a25.43,25.43,0,0,0,11.21,2.19,23.9,23.9,0,0,0,9.57-2,23.51,23.51,0,0,0,8.3-6.11,30.57,30.57,0,0,0,5.84-10.39A45.32,45.32,0,0,0,435.1,46V2.19h12.4V68.75q0,3.47.18,8.93t.55,9.85Z"/><path class="cls-1" d="M558,42.31V45a28.42,28.42,0,0,1-.18,3.1H487.07a33.24,33.24,0,0,0,2.55,12A30.31,30.31,0,0,0,496.18,70,31.58,31.58,0,0,0,506,76.68a32.61,32.61,0,0,0,28.9-2,33.41,33.41,0,0,0,10.67-10.3l9.3,7.29Q547.24,81.33,538,85.52a47.2,47.2,0,0,1-19.79,4.19,45.4,45.4,0,0,1-17.6-3.37,41.19,41.19,0,0,1-14-9.39,44.46,44.46,0,0,1-9.21-14.22,46.52,46.52,0,0,1-3.37-17.87A47.69,47.69,0,0,1,477.4,27a43.26,43.26,0,0,1,9.12-14.22A42,42,0,0,1,500.2,3.37a42.44,42.44,0,0,1,17-3.37,43.53,43.53,0,0,1,17.69,3.37,36.49,36.49,0,0,1,12.76,9.12,39.22,39.22,0,0,1,7.75,13.4A50,50,0,0,1,558,42.31Zm-12.58-4q-.55-12-7.75-20t-20.51-7.93a28.73,28.73,0,0,0-11.49,2.28,30.4,30.4,0,0,0-9.3,6.2A30.82,30.82,0,0,0,490,27.81a28.8,28.8,0,0,0-2.74,10.49Z"/></g></g></svg>