<svg xmlns="http://www.w3.org/2000/svg" viewBox="0 0 113.37 134.49"><defs><style>.cls-1{fill:#e10006;}</style></defs><title>Asset 4</title><g id="Layer_2" data-name="Layer 2"><g id="Layer_1-2" data-name="Layer 1"><path class="cls-1" d="M54,0h-.25c-4.61,0-7.64,3.83-10.31,7.21-.71.9-1.55,1.95-2.37,2.83L27,24.79c-7.78,8.3-17.48,18.63-22.8,31.12a57.71,57.71,0,0,0,9.66,59.3,58.2,58.2,0,0,0,43.25,19.29h.2a54.75,54.75,0,0,0,14-1.81,57.74,57.74,0,0,0,41.06-43.62A58.12,58.12,0,0,0,98.87,39.94a54.28,54.28,0,0,0-7.59-7.09,4.89,4.89,0,0,0-7.66,2.46c-1.77,5.89-1.25,11.76-.75,17.43.49,5.46.94,10.55-.77,14.78A13.86,13.86,0,0,1,66.9,75.45a14,14,0,0,1-10.44-13.7c.21-4.27,2.4-8.44,4.73-12.85a77.93,77.93,0,0,0,3.9-8.23c4.54-12,3.24-26-3.32-35.64A9.86,9.86,0,0,0,54,0Zm2,37.2a70.21,70.21,0,0,1-3.42,7.12C50,49.2,47.09,54.74,46.84,61.21A23.09,23.09,0,0,0,69,85.19a23.24,23.24,0,0,0,22.13-14c2.61-6.42,2-13.25,1.46-19.28L92.16,47l2.12,2.89a48.57,48.57,0,0,1,8.58,37.21v0A47.84,47.84,0,0,1,68.76,123.4,47.36,47.36,0,0,1,56.58,125,47.1,47.1,0,0,1,11.19,90a47.29,47.29,0,0,1,2.07-30.27C17.75,49,26.11,40.12,34.19,31.51L48.13,16.66c.66-.71,1.29-1.48,1.89-2.22.34-.42.68-.83,1-1.24l.24-.31c.4-.51.87-1.1,1.32-1.65l.94-1.14.71,1.3A30.91,30.91,0,0,1,56,37.2Z"/><path class="cls-1" d="M33.07,48a3.91,3.91,0,0,0-5.34,1.15l-.06.1A61.59,61.59,0,0,0,23,58a54,54,0,0,0-3.95,25.77A3.89,3.89,0,0,0,23,87.31h.43a3.9,3.9,0,0,0,3.48-4.22A46.09,46.09,0,0,1,30.27,61a54.07,54.07,0,0,1,4-7.67A3.92,3.92,0,0,0,33.07,48Z"/></g></g></svg>