<svg xmlns="http://www.w3.org/2000/svg" viewBox="0 0 136.16 136.17"><defs><style>.cls-1{fill:#e10006;}</style></defs><title>Asset 3</title><g id="Layer_2" data-name="Layer 2"><g id="Layer_1-2" data-name="Layer 1"><path class="cls-1" d="M47.8,136.17H88.35a4.38,4.38,0,0,0,4.38-4.38V92.73h39.06a4.38,4.38,0,0,0,4.38-4.38V47.82a4.39,4.39,0,0,0-4.38-4.38H92.73V4.38A4.38,4.38,0,0,0,88.35,0H47.8a4.38,4.38,0,0,0-4.38,4.38V43.43h-39A4.39,4.39,0,0,0,0,47.82V88.35a4.39,4.39,0,0,0,4.38,4.38h39v39.06A4.38,4.38,0,0,0,47.8,136.17ZM8.77,84V52.2h39a4.38,4.38,0,0,0,4.38-4.38V8.76H84V47.82a4.38,4.38,0,0,0,4.38,4.38h39.06V84H88.35A4.38,4.38,0,0,0,84,88.35v39.06H52.19V88.35A4.38,4.38,0,0,0,47.81,84Z"/></g></g></svg>