<?xml version="1.0" encoding="utf-8"?>
<!-- Generator: Adobe Illustrator 16.0.0, SVG Export Plug-In . SVG Version: 6.00 Build 0)  -->
<!DOCTYPE svg PUBLIC "-//W3C//DTD SVG 1.1//EN" "http://www.w3.org/Graphics/SVG/1.1/DTD/svg11.dtd">
<svg version="1.1" id="Layer_1" xmlns="http://www.w3.org/2000/svg" xmlns:xlink="http://www.w3.org/1999/xlink" x="0px" y="0px"
	 width="612px" height="792px" viewBox="0 0 612 792" enable-background="new 0 0 612 792" xml:space="preserve">
<title>Asset 6</title>
<g id="Layer_2">
	<g id="Layer_1-2">
		<path fill="#E10006" d="M305.978,235.247c-78.392,0-152.177-6.098-207.846-17.24c-65.451-13.073-95.939-30.312-95.939-54.309
			c0-23.996,30.708-41.236,95.939-54.308c55.668-11.099,129.498-17.196,207.846-17.196c78.348,0,152.177,6.098,207.846,17.24
			c65.494,13.029,95.938,30.312,95.938,54.264c0,23.952-30.488,41.236-95.938,54.309
			C458.199,229.105,384.37,235.247,305.978,235.247z M29.611,163.742c1.667,2.544,13.599,16.363,80.366,28.865
			c53.168,9.958,122.83,15.441,196.045,15.441c73.216,0,142.834-5.483,196.046-15.441c66.723-12.502,78.699-26.321,80.366-28.865
			c-1.668-2.5-13.6-16.363-80.366-28.865c-53.212-9.783-122.83-15.441-196.089-15.441s-142.833,5.659-196.001,15.441
			c-66.767,12.502-78.699,26.32-80.366,28.821V163.742z"/>
		<path fill="#E10006" d="M305.978,296.53c-102.431,0-196.221-10.484-250.88-28.076c-7.159-2.301-11.097-9.971-8.795-17.13
			c2.301-7.16,9.971-11.098,17.13-8.796c51.325,16.494,144.281,26.759,242.545,26.759c101.861,0,196.484-10.792,246.888-28.207
			c7.11-2.423,14.839,1.377,17.262,8.488s-1.377,14.839-8.488,17.262l0,0C507.901,285.431,412.357,296.53,305.978,296.53z"/>
		<path fill="#E10006" d="M305.978,355.093c-89.315,0-172.927-8.028-229.385-21.934c-7.405-1.253-12.392-8.273-11.138-15.678
			c1.253-7.405,8.273-12.392,15.678-11.139c0.677,0.115,1.345,0.28,1.997,0.496c54.396,13.467,135.64,21.188,222.849,21.188
			c60.38,0.387,120.701-3.866,180.428-12.722c7.426-1.211,14.428,3.826,15.639,11.252c1.212,7.426-3.826,14.428-11.252,15.639l0,0
			C429.618,351.3,367.825,355.612,305.978,355.093z"/>
		<path fill="#E10006" d="M305.978,413.657c-96.509,0-187.359-9.563-242.765-25.575c-7.268-2.084-11.471-9.665-9.388-16.933
			s9.665-11.471,16.933-9.388c53.08,15.354,141.035,24.522,235.219,24.522c39.481,0,77.383-1.535,113.179-4.606
			c7.498-0.642,14.098,4.916,14.739,12.415c0.643,7.498-4.916,14.098-12.414,14.739C384.94,412.077,346.073,413.657,305.978,413.657
			z"/>
		<path fill="#E10006" d="M305.978,472.221c-89.315,0-172.927-8.028-229.385-21.935c-7.405-1.253-12.392-8.272-11.138-15.678
			c1.253-7.405,8.273-12.392,15.678-11.139c0.677,0.115,1.345,0.28,1.997,0.496c54.44,13.248,135.683,21.363,222.849,21.363h38.56
			h0.351c7.265-0.244,13.351,5.447,13.595,12.711c0.002,0.048,0.003,0.095,0.005,0.143c0.194,7.411-5.654,13.577-13.065,13.772
			c-0.032,0.001-0.063,0.002-0.096,0.002C332.387,472.221,319.139,472.221,305.978,472.221z"/>
		<path fill="#E10006" d="M305.978,530.74c-16.977,0-33.998-0.308-50.536-0.878c-49.408-1.312-98.662-6.105-147.396-14.345
			c-7.401-1.345-12.312-8.435-10.967-15.836s8.435-12.312,15.836-10.967c47.441,8.042,95.391,12.732,143.491,14.037
			c16.231,0.57,32.945,0.834,49.614,0.834c7.523,0,13.621,6.099,13.621,13.621s-6.098,13.621-13.621,13.621l0,0L305.978,530.74z"/>
		<path fill="#E10006" d="M305.978,589.304c-17.547,0-35.094-0.308-52.378-0.921c-30.708-1.097-60.494-3.203-88.087-6.186
			c-7.474-0.812-12.875-7.529-12.063-15.003c0.812-7.475,7.529-12.875,15.003-12.063c26.935,2.938,55.887,4.957,86.112,6.054
			c16.845,0.614,34.129,0.921,51.369,0.921c7.523,0,13.621,6.099,13.621,13.621s-6.098,13.621-13.621,13.621l0,0L305.978,589.304z"
			/>
		<path fill="#E10006" d="M305.978,647.867c-21.232,0-42.376-0.438-62.906-1.36c-7.511-0.327-13.334-6.681-13.007-14.19
			c0.327-7.511,6.681-13.334,14.191-13.007l0,0c20.136,0.877,40.885,1.315,61.722,1.315c8.51,0,11.45,0,17.24-0.219h6.405
			c7.522-0.17,13.758,5.791,13.928,13.313s-5.791,13.759-13.313,13.928h-6.361C317.91,647.823,314.883,647.867,305.978,647.867z"/>
		<path fill="#E10006" d="M311.066,699.763c-2.808,0-5.79,0-8.773,0c-7.51-0.388-13.285-6.79-12.897-14.301
			s6.791-13.285,14.301-12.897c6.756,0.352,16.056,0,16.143,0c7.511-0.29,13.835,5.562,14.126,13.073
			c0.291,7.51-5.562,13.834-13.072,14.125C320.85,699.763,316.375,699.763,311.066,699.763z"/>
	</g>
</g>
</svg>
