<?xml version="1.0" encoding="utf-8"?>
<!-- Generator: Adobe Illustrator 16.0.0, SVG Export Plug-In . SVG Version: 6.00 Build 0)  -->
<!DOCTYPE svg PUBLIC "-//W3C//DTD SVG 1.1//EN" "http://www.w3.org/Graphics/SVG/1.1/DTD/svg11.dtd">
<svg version="1.1" id="Layer_1" xmlns="http://www.w3.org/2000/svg" xmlns:xlink="http://www.w3.org/1999/xlink" x="0px" y="0px"
	 width="612px" height="792px" viewBox="0 0 612 792" enable-background="new 0 0 612 792" xml:space="preserve">
<title>Asset 3</title>
<g id="Layer_2">
	<g id="Layer_1-2">
		<path fill="#E10006" d="M214.847,702.022h182.26c10.873,0,19.688-8.814,19.688-19.687l0,0V506.772h175.563
			c10.872,0,19.687-8.814,19.687-19.688l0,0v-182.17c-0.024-10.862-8.824-19.662-19.687-19.687H416.795V109.665
			c0-10.873-8.814-19.687-19.688-19.687l0,0h-182.26c-10.873,0-19.687,8.814-19.687,19.687l0,0v175.518H19.867
			C8.969,285.108,0.075,293.882,0,304.779c0,0.045,0,0.09,0,0.135v182.17c0.025,10.863,8.824,19.662,19.687,19.688H194.98v175.563
			c0,10.872,8.813,19.687,19.686,19.688C214.727,702.023,214.787,702.023,214.847,702.022z M39.418,467.533V324.602h175.294
			c10.873,0,19.687-8.814,19.687-19.687l0,0V129.351h143.156v175.563c0,10.873,8.814,19.687,19.687,19.687h175.563v142.932H397.107
			c-10.768,0.073-19.479,8.784-19.552,19.552v175.563H234.579V487.085c-0.074-10.819-8.867-19.552-19.687-19.552H39.418z"/>
	</g>
</g>
</svg>
