<?xml version="1.0" encoding="utf-8"?>
<!-- Generator: Adobe Illustrator 16.0.0, SVG Export Plug-In . SVG Version: 6.00 Build 0)  -->
<!DOCTYPE svg PUBLIC "-//W3C//DTD SVG 1.1//EN" "http://www.w3.org/Graphics/SVG/1.1/DTD/svg11.dtd">
<svg version="1.1" id="Layer_1" xmlns="http://www.w3.org/2000/svg" xmlns:xlink="http://www.w3.org/1999/xlink" x="0px" y="0px"
	 width="612px" height="792px" viewBox="0 0 612 792" enable-background="new 0 0 612 792" xml:space="preserve">
<title>Asset 8</title>
<g id="Layer_2">
	<g id="Layer_1-2">
		<path fill="#E10006" d="M256.144,488.85c15.284,16.021,33.729,25.979,51.177,27.884c17.449,1.904,36.673-4.33,57.498-27.45
			c6.451-7.188,13.509-15.544,25.416-19.527c11.906-3.983,25.978-1.516,41.392,6.668c29.009,22.038,58.883,44.336,87.416,66.98
			c12.366,11.662,17.265,29.209,12.729,45.591c-4.704,12.844-12.408,24.378-22.472,33.642
			c-48.449,50.484-105.817,74.86-162.146,66.331c-54.424-9.438-107.073-47.627-165.394-105.86l-69.275-69.275
			C53.948,455.295,15.847,402.646,6.408,348.135c-11.214-67.196,24.549-121.967,66.331-162.06
			c9.265-10.062,20.798-17.766,33.642-22.471c16.382-4.536,33.929,0.363,45.591,12.729c22.644,28.532,44.942,58.45,66.98,87.416
			c8.183,15.11,10.521,29.485,6.668,41.392s-12.34,18.964-19.527,25.415c-23.25,20.826-29.139,39.66-27.45,57.499
			s11.863,35.893,27.883,51.003 M186.696,458.889c-18.748-18.229-33.555-41.608-36.109-68.366
			c-2.555-26.757,8.659-55.853,36.759-81.095c6.841-6.148,10.608-10.392,11.647-13.465c1.039-3.074,1.299-7.49-4.33-18.444
			l-62.521-81.355c-8.053-8.053-11.257-7.793-17.318-5.888c-8.448,3.688-16.051,9.066-22.341,15.803
			c-50.268,50.224-66.028,92.785-58.321,137.337s41.349,93.737,97.98,150.37l69.275,69.274
			c56.806,56.849,105.991,90.447,150.543,98.154c44.552,7.706,87.112-8.054,137.337-58.278c6.737-6.29,12.115-13.894,15.804-22.341
			c1.904-6.104,2.121-9.309-5.889-17.318l-81.528-62.348c-10.953-5.802-15.413-5.499-18.444-4.33
			c-3.03,1.17-7.36,4.763-13.465,11.647c-25.199,28.143-54.251,39.313-81.095,36.759c-26.844-2.555-50.137-17.318-68.365-36.109"/>
		<path fill="#E10006" d="M270.128,116.151c0.702,7.614,7.163,13.395,14.808,13.249c162.603-0.12,294.515,131.599,294.634,294.202
			c0.001,0.145,0.001,0.289,0,0.433c-0.009,7.748,6.266,14.036,14.013,14.045s14.035-6.266,14.044-14.013c0-0.011,0-0.021,0-0.032
			c-0.119-178.167-144.523-322.571-322.691-322.69C276.826,101.505,270.29,108.041,270.128,116.151z M270.128,200.32
			c0.702,7.614,7.163,13.395,14.808,13.249c116.118-0.12,210.346,93.915,210.465,210.033c0.001,0.145,0.001,0.289,0,0.433
			c0,7.748,6.281,14.028,14.028,14.028c7.748,0,14.028-6.28,14.028-14.028c-0.119-131.682-106.839-238.402-238.522-238.521
			C276.863,185.761,270.376,192.247,270.128,200.32z"/>
	</g>
</g>
</svg>
