<?xml version="1.0" encoding="utf-8"?>
<!-- Generator: Adobe Illustrator 16.0.0, SVG Export Plug-In . SVG Version: 6.00 Build 0)  -->
<!DOCTYPE svg PUBLIC "-//W3C//DTD SVG 1.1//EN" "http://www.w3.org/Graphics/SVG/1.1/DTD/svg11.dtd">
<svg version="1.1" id="Layer_1" xmlns="http://www.w3.org/2000/svg" xmlns:xlink="http://www.w3.org/1999/xlink" x="0px" y="0px"
	 width="612px" height="792px" viewBox="0 0 612 792" enable-background="new 0 0 612 792" xml:space="preserve">
<title>Asset 7</title>
<g id="Layer_2">
	<g id="Layer_1-2">
		<path fill="#E10006" d="M279.491,203.384H156.98v122.383h122.51V203.384z M243.496,289.772h-50.52v-50.393h50.393L243.496,289.772
			z"/>
		<path fill="#E10006" d="M452.182,203.384H329.757v122.383H452.14L452.182,203.384z M416.188,289.772h-50.436v-50.393h50.393
			L416.188,289.772z"/>
		<path fill="#E10006" d="M279.491,369.004H156.98v122.383h122.51V369.004z M243.496,455.392h-50.52v-50.436h50.393L243.496,455.392
			z"/>
		<path fill="#E10006" d="M452.182,369.004H329.757v122.383H452.14L452.182,369.004z M416.188,455.392h-50.436v-50.436h50.393
			L416.188,455.392z"/>
		<path fill="#E10006" d="M594.003,639.009h-64.664V116.996H82.789v522.013H17.998c-9.94,0.014-17.987,8.082-17.974,18.021
			c0.014,9.921,8.053,17.96,17.974,17.974h575.92c9.939,0,17.997-8.058,17.997-17.998c0-9.939-8.058-17.997-17.997-17.997H594.003z
			 M118.784,152.991h374.39v486.018H370.791V534.581H234.01v104.386H118.784V152.991z M334.754,639.009h-64.749v-68.391h64.791
			L334.754,639.009z"/>
	</g>
</g>
</svg>
