<?xml version="1.0" encoding="utf-8"?>
<!-- Generator: Adobe Illustrator 16.0.0, SVG Export Plug-In . SVG Version: 6.00 Build 0)  -->
<!DOCTYPE svg PUBLIC "-//W3C//DTD SVG 1.1//EN" "http://www.w3.org/Graphics/SVG/1.1/DTD/svg11.dtd">
<svg version="1.1" id="Layer_1" xmlns="http://www.w3.org/2000/svg" xmlns:xlink="http://www.w3.org/1999/xlink" x="0px" y="0px"
	 width="612px" height="792px" viewBox="0 0 612 792" enable-background="new 0 0 612 792" xml:space="preserve">
<title>Asset 4</title>
<g id="Layer_2">
	<g id="Layer_1-2">
		<path fill="#E10006" d="M291.506,32.995h-1.35c-24.886,0-41.243,20.675-55.656,38.921c-3.833,4.858-8.367,10.526-12.794,15.277
			l-75.953,79.625c-41.999,44.805-94.361,100.569-123.08,167.994C-21.24,442.865-1.117,566.396,74.82,654.928
			c59.546,66.235,144.408,104.084,233.474,104.132h1.08c25.508,0.018,50.911-3.267,75.575-9.771
			c112.007-31.027,197.448-121.795,221.652-235.472c17.817-94.91-9.063-192.737-72.876-265.217
			c-12.403-14.038-26.123-26.854-40.973-38.273c-11.56-8.884-28.133-6.715-37.017,4.844c-1.942,2.527-3.41,5.385-4.334,8.436
			c-9.556,31.795-6.748,63.483-4.049,94.091c2.645,29.475,5.074,56.952-4.157,79.786c-14.187,31.503-48.099,49.195-82.053,42.809
			c-33.522-8.812-56.754-39.298-56.358-73.957c1.134-23.05,12.956-45.561,25.534-69.368c7.878-14.386,14.907-29.22,21.053-44.427
			c24.509-64.779,17.49-140.355-17.922-192.394C324.85,44.688,309.131,34.513,291.506,32.995z M302.302,233.81
			c-5.428,13.148-11.592,25.98-18.462,38.436c-13.928,26.343-29.637,56.25-30.986,91.176
			c-2.707,68.778,50.848,126.731,119.625,129.451c51.575,1.775,98.977-28.212,119.463-75.576
			c14.09-34.657,10.797-71.527,7.882-104.078l-2.321-26.505l11.444,15.601c42.217,57.824,58.95,130.397,46.317,200.869l0,0
			c-19.842,94.627-90.877,170.245-184.081,195.956c-21.448,5.722-43.552,8.625-65.75,8.638
			c-115.007-0.315-215.482-77.792-245.027-188.939C46.083,464.62,50.01,407.194,71.581,355.432
			c24.238-57.923,69.367-105.86,112.985-152.339l75.251-80.164c3.563-3.833,6.964-7.989,10.203-11.984
			c1.835-2.268,3.671-4.48,5.398-6.694l1.295-1.673c2.16-2.753,4.697-5.938,7.126-8.907l5.074-6.154l3.833,7.018
			C316.133,137.332,319.624,188.219,302.302,233.81z"/>
		<path fill="#E10006" d="M178.52,292.11c-9.701-6.098-22.496-3.343-28.827,6.208l-0.324,0.54
			c-9.659,15.042-18.09,30.838-25.21,47.235c-18.363,43.934-25.684,91.697-21.323,139.113c0.99,10.979,10.301,19.324,21.323,19.11
			h2.321c11.43-1.194,19.791-11.333,18.786-22.781c-3.827-40.635,2.403-81.588,18.138-119.247
			c6.08-14.356,13.301-28.202,21.593-41.405C190.979,311.119,188.108,298.37,178.52,292.11z"/>
	</g>
</g>
</svg>
