<svg xmlns="http://www.w3.org/2000/svg" viewBox="0 0 28.07 30.95"><defs><style>.cls-1{fill:gray;}</style></defs><title>Asset 4</title><g id="Layer_2" data-name="Layer 2"><g id="Layer_1-2" data-name="Layer 1"><path class="cls-1" d="M.74,23.48a1.46,1.46,0,0,0,1.46,0l6.39-3.84,1.89,1.15a4.8,4.8,0,0,1,1.89-.39,4.85,4.85,0,0,1,.83.07l-.44-1.71L9.93,17V3.94L14.4,6.63v3.93l.27-.06a3.6,3.6,0,0,1,2.38.42V6.63L21.41,4V15.57l.09,0,.35-.07a3.63,3.63,0,0,1,2.37.43l.09,0V1.45A1.45,1.45,0,0,0,23.57.19a1.47,1.47,0,0,0-1.46,0L15.72,4,9.33.21a1.45,1.45,0,0,0-1.49,0L.7,4.49A1.46,1.46,0,0,0,0,5.73V22.22A1.46,1.46,0,0,0,.74,23.48ZM2.9,6.56,7.27,3.94V17L2.9,19.65Z"/><path class="cls-1" d="M25.14,18.15a1.35,1.35,0,0,0-.35,0,1.42,1.42,0,0,0-.93.8l0-.14a1.48,1.48,0,0,0-1.38-1.06l-.21,0a1.42,1.42,0,0,0-1.09.82l0-.15a1.47,1.47,0,0,0-1.38-1h-.15a1.43,1.43,0,0,0-1.26,1.32L16.6,13.7a1.41,1.41,0,0,0-1.31-1l-.22,0A1.37,1.37,0,0,0,14,14.46l2.75,10a.69.69,0,0,1-.55.24,1.58,1.58,0,0,1-.88-.32l-1.17-1.08a2.55,2.55,0,0,0-2.78-.44.77.77,0,0,0-.23,1.24l4.54,4.66a2.45,2.45,0,0,0,1.21.66l1.62.15a1.49,1.49,0,0,1,1.18.63l.27.38a.77.77,0,0,0,.85.28l5.9-1.81a.77.77,0,0,0,.55-.7l0-.5a1.79,1.79,0,0,1,.2-.74,4.86,4.86,0,0,0,.43-3.55l-1.35-4.39A1.5,1.5,0,0,0,25.14,18.15Z"/></g></g></svg>