<?xml version="1.0" encoding="utf-8"?>
<!-- Generator: Adobe Illustrator 16.0.0, SVG Export Plug-In . SVG Version: 6.00 Build 0)  -->
<!DOCTYPE svg PUBLIC "-//W3C//DTD SVG 1.1//EN" "http://www.w3.org/Graphics/SVG/1.1/DTD/svg11.dtd">
<svg version="1.1" id="Layer_1" xmlns="http://www.w3.org/2000/svg" xmlns:xlink="http://www.w3.org/1999/xlink" x="0px" y="0px"
	 width="612px" height="792px" viewBox="0 0 612 792" enable-background="new 0 0 612 792" xml:space="preserve">
<title>Asset 3</title>
<g id="Layer_1-2">
	<path fill="#E10006" d="M0.602,360.004c-0.14-4.011-0.341-7.611-0.602-10.8h12.996c0.261,2.527,0.461,5.325,0.602,8.394
		c0.14,3.068,0.21,5.605,0.21,7.611H14.2c2.682-5.476,6.852-10.084,12.034-13.297c5.39-3.428,11.664-5.206,18.05-5.114
		c1.725,0,3.289,0.07,4.693,0.211c1.454,0.148,2.894,0.419,4.302,0.812l-1.805,12.997c-1.31-0.375-2.648-0.646-4.001-0.812
		c-1.854-0.262-3.724-0.393-5.596-0.391c-3.565-0.013-7.099,0.662-10.409,1.985c-3.385,1.34-6.391,3.488-8.754,6.258
		c-2.686,3.244-4.728,6.971-6.017,10.98c-1.643,5.203-2.415,10.641-2.287,16.095v47.864H0.812v-73.014
		C0.812,367.255,0.742,363.996,0.602,360.004z"/>
	<path fill="#E10006" d="M154.392,393.187v3.008c-0.008,1.137-0.079,2.271-0.211,3.399H76.594c0.102,4.538,1.051,9.018,2.797,13.207
		c1.661,4.039,4.104,7.71,7.19,10.801c3.094,3.142,6.76,5.664,10.8,7.431c4.226,1.823,8.785,2.745,13.387,2.707
		c6.443,0.167,12.795-1.536,18.291-4.903c4.7-2.846,8.699-6.712,11.703-11.312l10.199,8.002
		c-4.906,6.436-11.281,11.604-18.592,15.072c-6.812,3.083-14.212,4.653-21.69,4.603c-6.61,0.06-13.165-1.198-19.284-3.7
		c-5.758-2.338-10.972-5.841-15.313-10.289c-4.265-4.525-7.624-9.825-9.897-15.613c-2.506-6.223-3.763-12.877-3.701-19.585
		c-0.062-6.699,1.164-13.348,3.61-19.584c2.271-5.811,5.665-11.116,9.988-15.613c4.278-4.398,9.392-7.897,15.042-10.289
		c5.838-2.49,12.125-3.759,18.472-3.73c6.655-0.133,13.265,1.128,19.404,3.701c5.332,2.276,10.104,5.684,13.989,9.988
		c3.788,4.289,6.682,9.29,8.514,14.711C153.463,380.991,154.439,387.071,154.392,393.187z M140.583,388.915
		c-0.124-8.084-3.145-15.856-8.514-21.901c-5.274-5.796-12.775-8.694-22.503-8.694c-4.329-0.043-8.62,0.807-12.605,2.497
		c-3.791,1.616-7.249,3.921-10.199,6.799c-2.905,2.823-5.279,6.145-7.009,9.807c-1.721,3.606-2.742,7.506-3.008,11.492H140.583z"/>
	<path fill="#E10006" d="M171.178,393.909c-0.01-1.811,0.359-3.604,1.083-5.265c1.39-3.228,3.963-5.8,7.19-7.19
		c3.375-1.429,7.185-1.429,10.56,0c3.228,1.39,5.8,3.963,7.19,7.19c1.429,3.375,1.429,7.185,0,10.56
		c-1.39,3.228-3.963,5.8-7.19,7.19c-3.375,1.429-7.185,1.429-10.559,0c-3.228-1.391-5.801-3.963-7.19-7.19
		C171.533,397.534,171.164,395.73,171.178,393.909z"/>
	<path fill="#E10006" d="M271.599,371.406c-2.071-3.943-5.195-7.234-9.025-9.506c-4.199-2.501-9.012-3.783-13.899-3.701
		c-2.419,0.007-4.83,0.28-7.19,0.812c-2.272,0.477-4.442,1.353-6.408,2.587c-1.839,1.166-3.383,2.741-4.512,4.603
		c-1.162,1.998-1.746,4.279-1.685,6.588c-0.182,4.084,1.854,7.949,5.325,10.108c5.271,2.983,11.023,5.02,16.997,6.017
		c11.071,2.267,19.234,5.566,24.489,9.897c5.246,4.266,8.177,10.753,7.912,17.51c0.408,8.931-3.824,17.438-11.191,22.502
		c-3.418,2.369-7.258,4.064-11.312,4.994c-4.159,0.996-8.419,1.501-12.695,1.505c-7.102-0.004-14.123-1.501-20.608-4.393
		c-6.673-2.939-12.364-7.732-16.396-13.809l10.8-8.123c5.545,9.045,15.383,14.568,25.993,14.591
		c2.818,0.007,5.629-0.265,8.394-0.812c2.499-0.46,4.881-1.411,7.01-2.798c4.328-2.773,6.841-7.651,6.588-12.785
		c0.05-4.782-2.738-9.141-7.1-11.102c-6.538-3.085-13.414-5.396-20.487-6.889c-2.808-0.662-5.816-1.494-9.025-2.497
		c-3.115-0.988-6.05-2.472-8.694-4.393c-2.637-1.965-4.839-4.454-6.468-7.31c-1.86-3.406-2.755-7.254-2.587-11.131
		c-0.08-4.181,0.881-8.316,2.798-12.034c1.813-3.34,4.377-6.213,7.491-8.393c3.241-2.308,6.868-4.02,10.71-5.054
		c4.044-1.07,8.211-1.606,12.395-1.595c6.588,0.009,13.089,1.51,19.013,4.393c5.773,2.606,10.597,6.936,13.809,12.395
		L271.599,371.406z"/>
	<path fill="#E10006" d="M378.006,370.594c-2.449-3.825-5.863-6.938-9.897-9.025c-4.336-2.329-9.188-3.529-14.109-3.49
		c-5.09-0.042-10.132,0.983-14.802,3.008c-4.276,1.853-8.119,4.578-11.281,8.002c-3.181,3.487-5.627,7.58-7.189,12.034
		c-1.715,4.827-2.561,9.92-2.497,15.042c-0.053,5.043,0.793,10.056,2.497,14.802c1.56,4.436,3.972,8.523,7.1,12.033
		c3.115,3.438,6.932,6.166,11.191,8.003c4.669,2.026,9.711,3.052,14.801,3.008c9.994,0.292,19.47-4.44,25.241-12.604l10.198,7.611
		c-4.007,4.936-9.022,8.956-14.711,11.793c-6.527,3.089-13.69,4.594-20.909,4.392c-7.043,0.104-14.04-1.153-20.607-3.7
		c-5.892-2.303-11.239-5.807-15.704-10.289c-4.383-4.473-7.82-9.783-10.107-15.613c-2.447-6.236-3.673-12.886-3.61-19.585
		c-0.062-6.699,1.164-13.348,3.61-19.584c2.287-5.83,5.725-11.14,10.107-15.613c4.465-4.482,9.812-7.985,15.704-10.289
		c6.612-2.576,13.663-3.843,20.758-3.73c6.63,0.043,13.181,1.436,19.254,4.092c6.22,2.53,11.644,6.686,15.704,12.033
		L378.006,370.594z"/>
	<path fill="#E10006" d="M478.607,442.796c-0.261-2.527-0.461-5.325-0.602-8.394s-0.211-5.605-0.211-7.611h-0.391
		c-2.864,5.654-7.403,10.287-12.997,13.268c-5.78,3.336-12.338,5.09-19.013,5.084c-11.873,0-20.769-3.53-26.685-10.59
		c-6.278-7.947-9.482-17.891-9.025-28.008v-57.341h13.599v51.745c-0.039,4.49,0.364,8.975,1.203,13.387
		c0.666,3.668,2.057,7.166,4.091,10.289c1.953,2.892,4.643,5.208,7.792,6.709c3.865,1.726,8.073,2.549,12.305,2.406
		c3.613,0,7.188-0.748,10.499-2.196c3.466-1.545,6.547-3.835,9.025-6.708c2.863-3.344,5.041-7.218,6.408-11.402
		c1.704-5.264,2.518-10.774,2.406-16.306v-47.924h13.599v72.984c0,2.526,0.069,5.796,0.21,9.807
		c0.141,4.012,0.341,7.611,0.602,10.801H478.607z"/>
	<path fill="#E10006" d="M612,393.187v3.008c-0.008,1.137-0.078,2.271-0.211,3.399h-77.586c0.102,4.538,1.051,9.018,2.797,13.207
		c1.661,4.039,4.104,7.71,7.19,10.801c3.094,3.142,6.76,5.664,10.8,7.431c10.339,4.196,22.043,3.328,31.648-2.347
		c4.7-2.846,8.699-6.712,11.703-11.312l10.198,8.002c-4.866,6.468-11.21,11.678-18.501,15.192
		c-6.813,3.083-14.213,4.653-21.691,4.603c-6.609,0.06-13.165-1.198-19.283-3.7c-5.759-2.338-10.972-5.841-15.313-10.288
		c-4.34-4.508-7.771-9.809-10.107-15.614c-2.506-6.222-3.764-12.877-3.701-19.584c-0.09-6.693,1.104-13.342,3.521-19.584
		c2.271-5.811,5.664-11.117,9.987-15.614c4.278-4.398,9.393-7.896,15.042-10.289c5.906-2.508,12.267-3.768,18.683-3.701
		c6.676-0.141,13.307,1.12,19.464,3.701c5.332,2.276,10.105,5.684,13.989,9.988c3.788,4.289,6.683,9.29,8.514,14.711
		C611.092,380.992,612.058,387.073,612,393.187z M598.191,388.915c-0.103-8.13-3.137-15.949-8.544-22.021
		c-5.274-5.796-12.775-8.694-22.503-8.694c-4.328-0.042-8.619,0.808-12.605,2.497c-3.726,1.636-7.121,3.94-10.018,6.799
		c-2.905,2.823-5.279,6.145-7.01,9.808c-1.721,3.606-2.741,7.506-3.008,11.492L598.191,388.915z"/>
</g>
<path fill="#E10006" d="M0.602,359.004c-0.14-4.011-0.341-7.611-0.602-10.8h12.996c0.261,2.527,0.461,5.325,0.602,8.394
	c0.14,3.068,0.21,5.605,0.21,7.611H14.2c2.682-5.476,6.852-10.084,12.034-13.297c5.39-3.428,11.664-5.206,18.05-5.114
	c1.725,0,3.289,0.07,4.693,0.211c1.454,0.148,2.894,0.419,4.302,0.812l-1.805,12.997c-1.31-0.375-2.648-0.646-4.001-0.812
	c-1.854-0.262-3.724-0.393-5.596-0.391c-3.565-0.013-7.099,0.662-10.409,1.985c-3.385,1.34-6.391,3.488-8.754,6.258
	c-2.686,3.244-4.728,6.971-6.017,10.98c-1.643,5.202-2.415,10.641-2.287,16.095v47.864H0.812v-73.014
	C0.812,366.255,0.742,362.996,0.602,359.004z"/>
<path fill="#E10006" d="M154.392,392.188v3.008c-0.008,1.137-0.079,2.271-0.211,3.399H76.594c0.102,4.538,1.051,9.018,2.797,13.207
	c1.661,4.039,4.104,7.71,7.19,10.801c3.094,3.142,6.76,5.664,10.8,7.431c4.226,1.823,8.785,2.745,13.387,2.707
	c6.443,0.167,12.795-1.536,18.291-4.903c4.7-2.846,8.699-6.712,11.703-11.312l10.199,8.002
	c-4.906,6.436-11.281,11.604-18.592,15.072c-6.812,3.083-14.212,4.653-21.69,4.603c-6.61,0.06-13.165-1.198-19.284-3.7
	c-5.758-2.338-10.972-5.841-15.313-10.289c-4.265-4.525-7.624-9.825-9.897-15.613c-2.506-6.223-3.763-12.877-3.701-19.585
	c-0.062-6.698,1.164-13.348,3.61-19.584c2.271-5.811,5.665-11.116,9.988-15.613c4.278-4.398,9.392-7.897,15.042-10.289
	c5.838-2.49,12.125-3.759,18.472-3.73c6.655-0.133,13.265,1.128,19.404,3.701c5.332,2.276,10.104,5.684,13.989,9.988
	c3.788,4.289,6.682,9.29,8.514,14.711C153.463,379.991,154.439,386.071,154.392,392.188z M140.583,387.915
	c-0.124-8.084-3.145-15.856-8.514-21.901c-5.274-5.796-12.775-8.694-22.503-8.694c-4.329-0.043-8.62,0.807-12.605,2.497
	c-3.791,1.616-7.249,3.921-10.199,6.799c-2.905,2.823-5.279,6.145-7.009,9.807c-1.721,3.606-2.742,7.506-3.008,11.492H140.583z"/>
<path fill="#E10006" d="M171.178,392.909c-0.01-1.812,0.359-3.604,1.083-5.265c1.39-3.228,3.963-5.8,7.19-7.19
	c3.375-1.429,7.185-1.429,10.56,0c3.228,1.39,5.8,3.963,7.19,7.19c1.429,3.375,1.429,7.185,0,10.56c-1.39,3.228-3.963,5.8-7.19,7.19
	c-3.375,1.429-7.185,1.429-10.559,0c-3.228-1.391-5.801-3.963-7.19-7.19C171.533,396.534,171.164,394.73,171.178,392.909z"/>
<path fill="#808080" d="M271.599,371.406c-2.071-3.943-5.195-7.234-9.025-9.506c-4.199-2.501-9.012-3.783-13.899-3.701
	c-2.419,0.007-4.83,0.28-7.19,0.812c-2.272,0.477-4.442,1.353-6.408,2.587c-1.839,1.166-3.383,2.741-4.512,4.603
	c-1.162,1.998-1.746,4.279-1.685,6.588c-0.182,4.084,1.854,7.949,5.325,10.108c5.271,2.983,11.023,5.02,16.997,6.017
	c11.071,2.267,19.234,5.565,24.489,9.897c5.246,4.266,8.177,10.753,7.912,17.51c0.408,8.931-3.824,17.438-11.191,22.502
	c-3.418,2.369-7.258,4.064-11.312,4.994c-4.159,0.996-8.419,1.501-12.695,1.505c-7.102-0.004-14.123-1.501-20.608-4.393
	c-6.673-2.939-12.364-7.732-16.396-13.809l10.8-8.123c5.545,9.045,15.383,14.568,25.993,14.591c2.818,0.007,5.629-0.265,8.394-0.812
	c2.499-0.46,4.881-1.411,7.01-2.798c4.328-2.773,6.841-7.651,6.588-12.785c0.05-4.782-2.738-9.141-7.1-11.102
	c-6.538-3.085-13.414-5.396-20.487-6.889c-2.808-0.662-5.816-1.494-9.025-2.497c-3.115-0.988-6.05-2.472-8.694-4.393
	c-2.637-1.965-4.839-4.453-6.468-7.311c-1.86-3.405-2.755-7.254-2.587-11.131c-0.08-4.181,0.881-8.316,2.798-12.034
	c1.813-3.34,4.377-6.213,7.491-8.393c3.241-2.308,6.868-4.02,10.71-5.054c4.044-1.07,8.211-1.606,12.395-1.595
	c6.588,0.009,13.089,1.51,19.013,4.393c5.773,2.606,10.597,6.936,13.809,12.395L271.599,371.406z"/>
<path fill="#808080" d="M378.006,370.594c-2.449-3.825-5.863-6.938-9.897-9.025c-4.336-2.329-9.188-3.529-14.109-3.49
	c-5.09-0.042-10.132,0.983-14.802,3.008c-4.276,1.853-8.119,4.578-11.281,8.002c-3.181,3.487-5.627,7.58-7.189,12.034
	c-1.715,4.828-2.561,9.919-2.497,15.042c-0.053,5.043,0.793,10.056,2.497,14.802c1.56,4.436,3.972,8.523,7.1,12.033
	c3.115,3.438,6.932,6.166,11.191,8.003c4.669,2.026,9.711,3.052,14.801,3.008c9.994,0.292,19.47-4.44,25.241-12.604l10.198,7.611
	c-4.007,4.936-9.022,8.956-14.711,11.793c-6.527,3.089-13.69,4.594-20.909,4.392c-7.043,0.104-14.04-1.153-20.607-3.7
	c-5.892-2.303-11.239-5.807-15.704-10.289c-4.383-4.473-7.82-9.783-10.107-15.613c-2.447-6.236-3.673-12.886-3.61-19.585
	c-0.062-6.698,1.164-13.348,3.61-19.584c2.287-5.83,5.725-11.14,10.107-15.613c4.465-4.482,9.812-7.985,15.704-10.289
	c6.612-2.576,13.663-3.843,20.758-3.73c6.63,0.043,13.181,1.436,19.254,4.092c6.22,2.53,11.644,6.686,15.704,12.033L378.006,370.594
	z"/>
<path fill="#808080" d="M478.607,442.796c-0.261-2.527-0.461-5.325-0.602-8.394s-0.211-5.605-0.211-7.611h-0.391
	c-2.864,5.654-7.403,10.287-12.997,13.268c-5.78,3.336-12.338,5.09-19.013,5.084c-11.873,0-20.769-3.53-26.685-10.59
	c-6.278-7.947-9.482-17.891-9.025-28.008v-57.341h13.599v51.745c-0.039,4.49,0.364,8.975,1.203,13.387
	c0.666,3.668,2.057,7.166,4.091,10.289c1.953,2.892,4.643,5.208,7.792,6.709c3.865,1.726,8.073,2.549,12.305,2.406
	c3.613,0,7.188-0.748,10.499-2.196c3.466-1.545,6.547-3.835,9.025-6.708c2.863-3.344,5.041-7.218,6.408-11.402
	c1.704-5.264,2.518-10.774,2.406-16.306v-47.924h13.599v72.984c0,2.526,0.069,5.796,0.21,9.807
	c0.141,4.012,0.341,7.611,0.602,10.801H478.607z"/>
<path fill="#808080" d="M612,393.188v3.008c-0.008,1.137-0.078,2.271-0.211,3.399h-77.586c0.102,4.538,1.051,9.018,2.797,13.207
	c1.661,4.039,4.104,7.71,7.19,10.801c3.094,3.142,6.76,5.664,10.8,7.431c10.339,4.196,22.043,3.328,31.648-2.347
	c4.7-2.846,8.699-6.712,11.703-11.312l10.198,8.002c-4.866,6.468-11.21,11.678-18.501,15.192
	c-6.813,3.083-14.213,4.653-21.691,4.603c-6.609,0.06-13.165-1.198-19.283-3.7c-5.759-2.338-10.972-5.841-15.313-10.288
	c-4.34-4.508-7.771-9.809-10.107-15.614c-2.506-6.222-3.764-12.877-3.701-19.585c-0.09-6.693,1.104-13.341,3.521-19.584
	c2.271-5.811,5.664-11.117,9.987-15.614c4.278-4.398,9.393-7.896,15.042-10.289c5.906-2.508,12.267-3.768,18.683-3.701
	c6.676-0.141,13.307,1.12,19.464,3.701c5.332,2.276,10.105,5.684,13.989,9.988c3.788,4.289,6.683,9.29,8.514,14.711
	C611.092,380.992,612.058,387.072,612,393.188z M598.191,388.915c-0.103-8.13-3.137-15.949-8.544-22.021
	c-5.274-5.796-12.775-8.694-22.503-8.694c-4.328-0.042-8.619,0.808-12.605,2.497c-3.726,1.636-7.121,3.94-10.018,6.799
	c-2.905,2.823-5.279,6.145-7.01,9.808c-1.721,3.606-2.741,7.506-3.008,11.492L598.191,388.915z"/>
</svg>
